<?xml version="1.0" standalone="no"?>
<!DOCTYPE svg PUBLIC "-//W3C//DTD SVG 20010904//EN"
 "http://www.w3.org/TR/2001/REC-SVG-20010904/DTD/svg10.dtd">
<svg version="1.0" xmlns="http://www.w3.org/2000/svg"
 width="861.000000pt" height="860.000000pt" viewBox="0 0 861.000000 860.000000"
 preserveAspectRatio="xMidYMid meet">

<g transform="translate(0.000000,860.000000) scale(0.100000,-0.100000)"
fill="#000000" stroke="none">
<path d="M3990 8564 c-25 -2 -106 -11 -180 -20 -804 -93 -1558 -406 -2190
-910 -174 -138 -523 -488 -664 -664 -494 -619 -799 -1340 -906 -2140 -27 -200
-38 -639 -21 -860 98 -1305 790 -2492 1881 -3226 177 -119 280 -179 480 -279
472 -237 972 -378 1514 -430 305 -29 729 -17 1036 30 736 111 1439 420 2032
893 173 138 524 489 662 662 112 141 299 414 381 559 278 490 445 1002 532
1631 25 179 25 777 0 965 -74 552 -208 1002 -432 1445 -137 269 -287 503 -495
767 -96 122 -439 471 -575 584 -648 542 -1402 866 -2265 974 -120 15 -683 28
-790 19z m770 -578 c711 -99 1326 -361 1874 -800 136 -109 387 -355 505 -496
489 -583 779 -1269 856 -2030 14 -131 16 -223 12 -445 -6 -281 -16 -389 -58
-610 -286 -1519 -1494 -2711 -3012 -2974 -409 -71 -874 -71 -1287 0 -1346 231
-2474 1214 -2895 2520 -123 382 -176 728 -176 1144 0 381 43 686 147 1048 113
392 335 838 580 1164 498 664 1170 1132 1953 1359 231 67 461 110 746 138 102
10 645 -3 755 -18z"/>
<path d="M2010 6175 l0 -385 2285 0 2285 0 0 385 0 385 -2285 0 -2285 0 0
-385z"/>
<path d="M2010 4880 l0 -380 950 0 950 0 0 -1635 0 -1635 385 0 385 0 0 1635
0 1635 950 0 950 0 0 380 0 380 -2285 0 -2285 0 0 -380z"/>
</g>
</svg>
